<svg xmlns="http://www.w3.org/2000/svg" viewBox="0 0 50 33" width="50" height="33">
	<style>
		tspan { white-space:pre }
		.shp0 { fill: #ffcc00 } 
	</style>
	<g id="Layer">
		<g id="s">
			<g id="c">
				<path id="t" class="shp0" d="M25 3.67L24.43 5.41L25.31 5.69L25 3.67Z" />
				<path id="t" class="shp0" d="M25 3.67L25.57 5.41L24.69 5.69L25 3.67Z" />
			</g>
			<g id="a">
				<g id="c">
					<path id="t" class="shp0" d="M26.76 4.93L24.91 4.93L24.91 5.85L26.76 4.93Z" />
					<path id="t" class="shp0" d="M26.76 4.93L25.26 6.01L24.72 5.27L26.76 4.93Z" />
				</g>
				<g id="c">
					<path id="t" class="shp0" d="M26.09 6.98L25.52 5.24L24.64 5.52L26.09 6.98Z" />
					<path id="t" class="shp0" d="M26.09 6.98L24.59 5.91L25.13 5.16L26.09 6.98Z" />
				</g>
			</g>
			<g id="a">
				<g id="c">
					<path id="t" class="shp0" d="M23.24 4.93L25.09 4.93L25.09 5.85L23.24 4.93Z" />
					<path id="t" class="shp0" d="M23.24 4.93L24.74 6.01L25.28 5.27L23.24 4.93Z" />
				</g>
				<g id="c">
					<path id="t" class="shp0" d="M23.91 6.98L24.48 5.24L25.36 5.52L23.91 6.98Z" />
					<path id="t" class="shp0" d="M23.91 6.98L25.41 5.91L24.87 5.16L23.91 6.98Z" />
				</g>
			</g>
		</g>
		<g id="s">
			<g id="c">
				<path id="t" class="shp0" d="M25 25.67L24.43 27.41L25.31 27.69L25 25.67Z" />
				<path id="t" class="shp0" d="M25 25.67L25.57 27.41L24.69 27.69L25 25.67Z" />
			</g>
			<g id="a">
				<g id="c">
					<path id="t" class="shp0" d="M26.76 26.93L24.91 26.93L24.91 27.85L26.76 26.93Z" />
					<path id="t" class="shp0" d="M26.76 26.93L25.26 28.01L24.72 27.27L26.76 26.93Z" />
				</g>
				<g id="c">
					<path id="t" class="shp0" d="M26.09 28.98L25.52 27.24L24.64 27.52L26.09 28.98Z" />
					<path id="t" class="shp0" d="M26.09 28.98L24.59 27.91L25.13 27.16L26.09 28.98Z" />
				</g>
			</g>
			<g id="a">
				<g id="c">
					<path id="t" class="shp0" d="M23.24 26.93L25.09 26.93L25.09 27.85L23.24 26.93Z" />
					<path id="t" class="shp0" d="M23.24 26.93L24.74 28.01L25.28 27.27L23.24 26.93Z" />
				</g>
				<g id="c">
					<path id="t" class="shp0" d="M23.91 28.98L24.48 27.24L25.36 27.52L23.91 28.98Z" />
					<path id="t" class="shp0" d="M23.91 28.98L25.41 27.91L24.87 27.16L23.91 28.98Z" />
				</g>
			</g>
		</g>
		<g id="l">
			<g id="s">
				<g id="c">
					<path id="t" class="shp0" d="M13.89 14.67L13.32 16.41L14.2 16.69L13.89 14.67Z" />
					<path id="t" class="shp0" d="M13.89 14.67L14.46 16.41L13.58 16.69L13.89 14.67Z" />
				</g>
				<g id="a">
					<g id="c">
						<path id="t" class="shp0" d="M15.65 15.93L13.8 15.93L13.8 16.85L15.65 15.93Z" />
						<path id="t" class="shp0" d="M15.65 15.93L14.15 17.01L13.61 16.27L15.65 15.93Z" />
					</g>
					<g id="c">
						<path id="t" class="shp0" d="M14.98 17.98L14.41 16.24L13.52 16.52L14.98 17.98Z" />
						<path id="t" class="shp0" d="M14.98 17.98L13.48 16.91L14.02 16.16L14.98 17.98Z" />
					</g>
				</g>
				<g id="a">
					<g id="c">
						<path id="t" class="shp0" d="M12.13 15.93L13.98 15.93L13.98 16.85L12.13 15.93Z" />
						<path id="t" class="shp0" d="M12.13 15.93L13.63 17.01L14.17 16.27L12.13 15.93Z" />
					</g>
					<g id="c">
						<path id="t" class="shp0" d="M12.8 17.98L13.37 16.24L14.25 16.52L12.8 17.98Z" />
						<path id="t" class="shp0" d="M12.8 17.98L14.3 16.91L13.75 16.16L12.8 17.98Z" />
					</g>
				</g>
			</g>
			<g id="s">
				<g id="c">
					<path id="t" class="shp0" d="M18.36 8.46L19.85 7.38L19.31 6.64L18.36 8.46Z" />
					<path id="t" class="shp0" d="M18.36 8.46L18.93 6.71L19.81 7L18.36 8.46Z" />
				</g>
				<g id="a">
					<g id="c">
						<path id="t" class="shp0" d="M17.68 6.41L19.18 7.48L19.73 6.74L17.68 6.41Z" />
						<path id="t" class="shp0" d="M17.68 6.41L19.54 6.41L19.54 7.32L17.68 6.41Z" />
					</g>
					<g id="c">
						<path id="t" class="shp0" d="M19.44 5.14L18.87 6.88L19.75 7.17L19.44 5.14Z" />
						<path id="t" class="shp0" d="M19.44 5.14L20.02 6.88L19.14 7.17L19.44 5.14Z" />
					</g>
				</g>
				<g id="a">
					<g id="c">
						<path id="t" class="shp0" d="M20.53 8.46L19.03 7.38L19.58 6.64L20.53 8.46Z" />
						<path id="t" class="shp0" d="M20.53 8.46L19.96 6.71L19.08 7L20.53 8.46Z" />
					</g>
					<g id="c">
						<path id="t" class="shp0" d="M21.21 6.41L19.71 7.48L19.16 6.74L21.21 6.41Z" />
						<path id="t" class="shp0" d="M21.21 6.41L19.35 6.41L19.35 7.32L21.21 6.41Z" />
					</g>
				</g>
			</g>
			<g id="s">
				<g id="c">
					<path id="t" class="shp0" d="M16.47 12.48L15.89 10.74L15.01 11.02L16.47 12.48Z" />
					<path id="t" class="shp0" d="M16.47 12.48L14.97 11.41L15.51 10.66L16.47 12.48Z" />
				</g>
				<g id="a">
					<g id="c">
						<path id="t" class="shp0" d="M14.29 12.48L15.79 11.41L15.24 10.66L14.29 12.48Z" />
						<path id="t" class="shp0" d="M14.29 12.48L14.86 10.74L15.74 11.02L14.29 12.48Z" />
					</g>
					<g id="c">
						<path id="t" class="shp0" d="M13.62 10.43L15.11 11.51L15.66 10.77L13.62 10.43Z" />
						<path id="t" class="shp0" d="M13.62 10.43L15.47 10.43L15.47 11.35L13.62 10.43Z" />
					</g>
				</g>
				<g id="a">
					<g id="c">
						<path id="t" class="shp0" d="M17.14 10.43L15.64 11.51L15.1 10.77L17.14 10.43Z" />
						<path id="t" class="shp0" d="M17.14 10.43L15.29 10.43L15.29 11.35L17.14 10.43Z" />
					</g>
					<g id="c">
						<path id="t" class="shp0" d="M15.38 9.17L15.95 10.91L15.07 11.19L15.38 9.17Z" />
						<path id="t" class="shp0" d="M15.38 9.17L14.81 10.91L15.69 11.19L15.38 9.17Z" />
					</g>
				</g>
			</g>
			<g id="s">
				<g id="c">
					<path id="t" class="shp0" d="M17.14 21.43L15.29 21.43L15.29 22.35L17.14 21.43Z" />
					<path id="t" class="shp0" d="M17.14 21.43L15.64 22.51L15.1 21.77L17.14 21.43Z" />
				</g>
				<g id="a">
					<g id="c">
						<path id="t" class="shp0" d="M16.47 23.48L15.89 21.74L15.01 22.02L16.47 23.48Z" />
						<path id="t" class="shp0" d="M16.47 23.48L14.97 22.41L15.51 21.66L16.47 23.48Z" />
					</g>
					<g id="c">
						<path id="t" class="shp0" d="M14.29 23.48L15.79 22.41L15.24 21.66L14.29 23.48Z" />
						<path id="t" class="shp0" d="M14.29 23.48L14.86 21.74L15.74 22.02L14.29 23.48Z" />
					</g>
				</g>
				<g id="a">
					<g id="c">
						<path id="t" class="shp0" d="M15.38 20.17L15.95 21.91L15.07 22.19L15.38 20.17Z" />
						<path id="t" class="shp0" d="M15.38 20.17L14.81 21.91L15.69 22.19L15.38 20.17Z" />
					</g>
					<g id="c">
						<path id="t" class="shp0" d="M13.62 21.43L15.47 21.43L15.47 22.35L13.62 21.43Z" />
						<path id="t" class="shp0" d="M13.62 21.43L15.11 22.51L15.66 21.77L13.62 21.43Z" />
					</g>
				</g>
			</g>
			<g id="s">
				<g id="c">
					<path id="t" class="shp0" d="M21.21 25.46L19.35 25.46L19.35 26.38L21.21 25.46Z" />
					<path id="t" class="shp0" d="M21.21 25.46L19.71 26.54L19.16 25.8L21.21 25.46Z" />
				</g>
				<g id="a">
					<g id="c">
						<path id="t" class="shp0" d="M20.53 27.51L19.96 25.77L19.08 26.05L20.53 27.51Z" />
						<path id="t" class="shp0" d="M20.53 27.51L19.03 26.43L19.58 25.69L20.53 27.51Z" />
					</g>
					<g id="c">
						<path id="t" class="shp0" d="M18.36 27.51L19.85 26.43L19.31 25.69L18.36 27.51Z" />
						<path id="t" class="shp0" d="M18.36 27.51L18.93 25.77L19.81 26.05L18.36 27.51Z" />
					</g>
				</g>
				<g id="a">
					<g id="c">
						<path id="t" class="shp0" d="M19.44 24.19L20.02 25.94L19.14 26.22L19.44 24.19Z" />
						<path id="t" class="shp0" d="M19.44 24.19L18.87 25.94L19.75 26.22L19.44 24.19Z" />
					</g>
					<g id="c">
						<path id="t" class="shp0" d="M17.68 25.46L19.54 25.46L19.54 26.38L17.68 25.46Z" />
						<path id="t" class="shp0" d="M17.68 25.46L19.18 26.54L19.73 25.8L17.68 25.46Z" />
					</g>
				</g>
			</g>
		</g>
		<g id="l">
			<g id="s">
				<g id="c">
					<path id="t" class="shp0" d="M36.11 14.67L36.68 16.41L35.8 16.69L36.11 14.67Z" />
					<path id="t" class="shp0" d="M36.11 14.67L35.54 16.41L36.42 16.69L36.11 14.67Z" />
				</g>
				<g id="a">
					<g id="c">
						<path id="t" class="shp0" d="M34.35 15.93L36.2 15.93L36.2 16.85L34.35 15.93Z" />
						<path id="t" class="shp0" d="M34.35 15.93L35.85 17.01L36.39 16.27L34.35 15.93Z" />
					</g>
					<g id="c">
						<path id="t" class="shp0" d="M35.02 17.98L35.59 16.24L36.48 16.52L35.02 17.98Z" />
						<path id="t" class="shp0" d="M35.02 17.98L36.52 16.91L35.98 16.16L35.02 17.98Z" />
					</g>
				</g>
				<g id="a">
					<g id="c">
						<path id="t" class="shp0" d="M37.87 15.93L36.02 15.93L36.02 16.85L37.87 15.93Z" />
						<path id="t" class="shp0" d="M37.87 15.93L36.37 17.01L35.83 16.27L37.87 15.93Z" />
					</g>
					<g id="c">
						<path id="t" class="shp0" d="M37.2 17.98L36.63 16.24L35.75 16.52L37.2 17.98Z" />
						<path id="t" class="shp0" d="M37.2 17.98L35.7 16.91L36.25 16.16L37.2 17.98Z" />
					</g>
				</g>
			</g>
			<g id="s">
				<g id="c">
					<path id="t" class="shp0" d="M31.64 8.46L30.15 7.38L30.69 6.64L31.64 8.46Z" />
					<path id="t" class="shp0" d="M31.64 8.46L31.07 6.71L30.19 7L31.64 8.46Z" />
				</g>
				<g id="a">
					<g id="c">
						<path id="t" class="shp0" d="M32.32 6.41L30.82 7.48L30.27 6.74L32.32 6.41Z" />
						<path id="t" class="shp0" d="M32.32 6.41L30.46 6.41L30.46 7.32L32.32 6.41Z" />
					</g>
					<g id="c">
						<path id="t" class="shp0" d="M30.56 5.14L31.13 6.88L30.25 7.17L30.56 5.14Z" />
						<path id="t" class="shp0" d="M30.56 5.14L29.98 6.88L30.86 7.17L30.56 5.14Z" />
					</g>
				</g>
				<g id="a">
					<g id="c">
						<path id="t" class="shp0" d="M29.47 8.46L30.97 7.38L30.42 6.64L29.47 8.46Z" />
						<path id="t" class="shp0" d="M29.47 8.46L30.04 6.71L30.92 7L29.47 8.46Z" />
					</g>
					<g id="c">
						<path id="t" class="shp0" d="M28.79 6.41L30.29 7.48L30.84 6.74L28.79 6.41Z" />
						<path id="t" class="shp0" d="M28.79 6.41L30.65 6.41L30.65 7.32L28.79 6.41Z" />
					</g>
				</g>
			</g>
			<g id="s">
				<g id="c">
					<path id="t" class="shp0" d="M33.53 12.48L34.11 10.74L34.99 11.02L33.53 12.48Z" />
					<path id="t" class="shp0" d="M33.53 12.48L35.03 11.41L34.49 10.66L33.53 12.48Z" />
				</g>
				<g id="a">
					<g id="c">
						<path id="t" class="shp0" d="M35.71 12.48L34.21 11.41L34.76 10.66L35.71 12.48Z" />
						<path id="t" class="shp0" d="M35.71 12.48L35.14 10.74L34.26 11.02L35.71 12.48Z" />
					</g>
					<g id="c">
						<path id="t" class="shp0" d="M36.38 10.43L34.89 11.51L34.34 10.77L36.38 10.43Z" />
						<path id="t" class="shp0" d="M36.38 10.43L34.53 10.43L34.53 11.35L36.38 10.43Z" />
					</g>
				</g>
				<g id="a">
					<g id="c">
						<path id="t" class="shp0" d="M32.86 10.43L34.36 11.51L34.9 10.77L32.86 10.43Z" />
						<path id="t" class="shp0" d="M32.86 10.43L34.71 10.43L34.71 11.35L32.86 10.43Z" />
					</g>
					<g id="c">
						<path id="t" class="shp0" d="M34.62 9.17L34.05 10.91L34.93 11.19L34.62 9.17Z" />
						<path id="t" class="shp0" d="M34.62 9.17L35.19 10.91L34.31 11.19L34.62 9.17Z" />
					</g>
				</g>
			</g>
			<g id="s">
				<g id="c">
					<path id="t" class="shp0" d="M32.86 21.43L34.71 21.43L34.71 22.35L32.86 21.43Z" />
					<path id="t" class="shp0" d="M32.86 21.43L34.36 22.51L34.9 21.77L32.86 21.43Z" />
				</g>
				<g id="a">
					<g id="c">
						<path id="t" class="shp0" d="M33.53 23.48L34.11 21.74L34.99 22.02L33.53 23.48Z" />
						<path id="t" class="shp0" d="M33.53 23.48L35.03 22.41L34.49 21.66L33.53 23.48Z" />
					</g>
					<g id="c">
						<path id="t" class="shp0" d="M35.71 23.48L34.21 22.41L34.76 21.66L35.71 23.48Z" />
						<path id="t" class="shp0" d="M35.71 23.48L35.14 21.74L34.26 22.02L35.71 23.48Z" />
					</g>
				</g>
				<g id="a">
					<g id="c">
						<path id="t" class="shp0" d="M34.62 20.17L34.05 21.91L34.93 22.19L34.62 20.17Z" />
						<path id="t" class="shp0" d="M34.62 20.17L35.19 21.91L34.31 22.19L34.62 20.17Z" />
					</g>
					<g id="c">
						<path id="t" class="shp0" d="M36.38 21.43L34.53 21.43L34.53 22.35L36.38 21.43Z" />
						<path id="t" class="shp0" d="M36.38 21.43L34.89 22.51L34.34 21.77L36.38 21.43Z" />
					</g>
				</g>
			</g>
			<g id="s">
				<g id="c">
					<path id="t" class="shp0" d="M28.79 25.46L30.65 25.46L30.65 26.38L28.79 25.46Z" />
					<path id="t" class="shp0" d="M28.79 25.46L30.29 26.54L30.84 25.8L28.79 25.46Z" />
				</g>
				<g id="a">
					<g id="c">
						<path id="t" class="shp0" d="M29.47 27.51L30.04 25.77L30.92 26.05L29.47 27.51Z" />
						<path id="t" class="shp0" d="M29.47 27.51L30.97 26.43L30.42 25.69L29.47 27.51Z" />
					</g>
					<g id="c">
						<path id="t" class="shp0" d="M31.64 27.51L30.15 26.43L30.69 25.69L31.64 27.51Z" />
						<path id="t" class="shp0" d="M31.64 27.51L31.07 25.77L30.19 26.05L31.64 27.51Z" />
					</g>
				</g>
				<g id="a">
					<g id="c">
						<path id="t" class="shp0" d="M30.56 24.19L29.98 25.94L30.86 26.22L30.56 24.19Z" />
						<path id="t" class="shp0" d="M30.56 24.19L31.13 25.94L30.25 26.22L30.56 24.19Z" />
					</g>
					<g id="c">
						<path id="t" class="shp0" d="M32.32 25.46L30.46 25.46L30.46 26.38L32.32 25.46Z" />
						<path id="t" class="shp0" d="M32.32 25.46L30.82 26.54L30.27 25.8L32.32 25.46Z" />
					</g>
				</g>
			</g>
		</g>
	</g>
</svg>